<svg width="72" height="72" viewBox="0 0 72 72" fill="none" xmlns="http://www.w3.org/2000/svg">
<path d="M64.6796 32.2202L60.5997 27.4802C59.8197 26.5802 59.1896 24.9002 59.1896 23.7002V18.6002C59.1896 15.4202 56.5796 12.8102 53.3996 12.8102H48.2996C47.1296 12.8102 45.4196 12.1802 44.5196 11.4002L39.7796 7.32018C37.7096 5.55018 34.3196 5.55018 32.2196 7.32018L27.5096 11.4302C26.6096 12.1802 24.8996 12.8102 23.7296 12.8102H18.5396C15.3596 12.8102 12.7496 15.4202 12.7496 18.6002V23.7302C12.7496 24.9002 12.1196 26.5802 11.3696 27.4802L7.31965 32.2502C5.57965 34.3202 5.57965 37.6802 7.31965 39.7502L11.3696 44.5202C12.1196 45.4202 12.7496 47.1002 12.7496 48.2702V53.4002C12.7496 56.5802 15.3596 59.1902 18.5396 59.1902H23.7296C24.8996 59.1902 26.6096 59.8202 27.5096 60.6002L32.2496 64.6802C34.3196 66.4502 37.7096 66.4502 39.8096 64.6802L44.5496 60.6002C45.4496 59.8202 47.1296 59.1902 48.3296 59.1902H53.4296C56.6096 59.1902 59.2197 56.5802 59.2197 53.4002V48.3002C59.2197 47.1302 59.8496 45.4202 60.6296 44.5202L64.7097 39.7802C66.4496 37.7102 66.4496 34.2902 64.6796 32.2202ZM48.4796 30.3302L33.9896 44.8202C33.5696 45.2402 32.9996 45.4802 32.3996 45.4802C31.7996 45.4802 31.2296 45.2402 30.8096 44.8202L23.5496 37.5602C22.6796 36.6902 22.6796 35.2502 23.5496 34.3802C24.4196 33.5102 25.8596 33.5102 26.7296 34.3802L32.3996 40.0502L45.2996 27.1502C46.1696 26.2802 47.6096 26.2802 48.4796 27.1502C49.3496 28.0202 49.3496 29.4602 48.4796 30.3302Z" fill="#0C8A8A"/>
</svg>
