<svg width="10" height="10" viewBox="0 0 10 10" fill="none" xmlns="http://www.w3.org/2000/svg">
<path d="M9.7775 4.37125L9.0975 3.58125C8.9675 3.43125 8.8625 3.15125 8.8625 2.95125V2.10125C8.8625 1.57125 8.4275 1.13625 7.8975 1.13625H7.0475C6.8525 1.13625 6.5675 1.03125 6.4175 0.90125L5.6275 0.22125C5.2825 -0.07375 4.7175 -0.07375 4.3675 0.22125L3.5825 0.90625C3.4325 1.03125 3.1475 1.13625 2.9525 1.13625H2.0875C1.5575 1.13625 1.1225 1.57125 1.1225 2.10125V2.95625C1.1225 3.15125 1.0175 3.43125 0.8925 3.58125L0.2175 4.37625C-0.0725 4.72125 -0.0725 5.28125 0.2175 5.62625L0.8925 6.42125C1.0175 6.57125 1.1225 6.85125 1.1225 7.04625V7.90125C1.1225 8.43125 1.5575 8.86625 2.0875 8.86625H2.9525C3.1475 8.86625 3.4325 8.97125 3.5825 9.10125L4.3725 9.78125C4.7175 10.0762 5.2825 10.0762 5.6325 9.78125L6.4225 9.10125C6.5725 8.97125 6.8525 8.86625 7.0525 8.86625H7.9025C8.4325 8.86625 8.8675 8.43125 8.8675 7.90125V7.05125C8.8675 6.85625 8.9725 6.57125 9.1025 6.42125L9.7825 5.63125C10.0725 5.28625 10.0725 4.71625 9.7775 4.37125ZM7.0775 4.05625L4.6625 6.47125C4.5925 6.54125 4.4975 6.58125 4.3975 6.58125C4.2975 6.58125 4.2025 6.54125 4.1325 6.47125L2.9225 5.26125C2.7775 5.11625 2.7775 4.87625 2.9225 4.73125C3.0675 4.58625 3.3075 4.58625 3.4525 4.73125L4.3975 5.67625L6.5475 3.52625C6.6925 3.38125 6.9325 3.38125 7.0775 3.52625C7.2225 3.67125 7.2225 3.91125 7.0775 4.05625Z" fill="#FDBA45"/>
</svg>
