<svg width="20" height="20" viewBox="0 0 20 20" fill="none" xmlns="http://www.w3.org/2000/svg">
<path d="M8.95933 14.0503V15.742C8.95933 17.1753 7.62599 18.3336 5.98432 18.3336C4.34266 18.3336 3.00098 17.1753 3.00098 15.742V14.0503C3.00098 15.4836 4.33432 16.5003 5.98432 16.5003C7.62599 16.5003 8.95933 15.4753 8.95933 14.0503Z" stroke="#0C8A8A" stroke-width="1.5" stroke-linecap="round" stroke-linejoin="round"/>
<path d="M8.95786 11.7581C8.95786 12.1748 8.84118 12.5581 8.64118 12.8914C8.14952 13.6998 7.14117 14.2081 5.97451 14.2081C4.80784 14.2081 3.7995 13.6914 3.30783 12.8914C3.10783 12.5581 2.99121 12.1748 2.99121 11.7581C2.99121 11.0415 3.32453 10.3998 3.85786 9.93312C4.39953 9.45812 5.14117 9.1748 5.96617 9.1748C6.79117 9.1748 7.53286 9.46645 8.07452 9.93312C8.62452 10.3914 8.95786 11.0415 8.95786 11.7581Z" stroke="#0C8A8A" stroke-width="1.5" stroke-linecap="round" stroke-linejoin="round"/>
<path d="M8.95933 11.7582V14.0498C8.95933 15.4832 7.62599 16.4998 5.98432 16.4998C4.34266 16.4998 3.00098 15.4748 3.00098 14.0498V11.7582C3.00098 10.3248 4.33432 9.1665 5.98432 9.1665C6.80932 9.1665 7.55102 9.45815 8.09268 9.92481C8.62602 10.3915 8.95933 11.0415 8.95933 11.7582Z" stroke="#0C8A8A" stroke-width="1.5" stroke-linecap="round" stroke-linejoin="round"/>
<path d="M18.3338 9.14147V10.8582C18.3338 11.3165 17.9672 11.6915 17.5005 11.7082H15.8672C14.9672 11.7082 14.1422 11.0498 14.0672 10.1498C14.0172 9.62482 14.2172 9.13315 14.5672 8.79148C14.8755 8.47482 15.3005 8.2915 15.7672 8.2915H17.5005C17.9672 8.30817 18.3338 8.68314 18.3338 9.14147Z" stroke="#0C8A8A" stroke-width="1.5" stroke-linecap="round" stroke-linejoin="round"/>
<path d="M1.66699 8.74984V7.08317C1.66699 4.8165 3.03366 3.23317 5.15866 2.9665C5.37533 2.93317 5.60033 2.9165 5.83366 2.9165H13.3337C13.5503 2.9165 13.7587 2.92483 13.9587 2.95816C16.1087 3.20816 17.5003 4.79984 17.5003 7.08317V8.29151H15.767C15.3003 8.29151 14.8753 8.47483 14.567 8.79149C14.217 9.13316 14.017 9.62483 14.067 10.1498C14.142 11.0498 14.967 11.7082 15.867 11.7082H17.5003V12.9165C17.5003 15.4165 15.8337 17.0832 13.3337 17.0832H11.2503" stroke="#0C8A8A" stroke-width="1.5" stroke-linecap="round" stroke-linejoin="round"/>
</svg>
